<svg version="1.1" xmlns="http://www.w3.org/2000/svg" xmlns:xlink="http://www.w3.org/1999/xlink" width="113.32412" height="174.21847" viewBox="0,0,113.32412,174.21847"><g transform="translate(-164.09133,-56.5202)"><g data-paper-data="{&quot;isPaintingLayer&quot;:true}" fill-rule="nonzero" stroke="#000000" stroke-linejoin="miter" stroke-miterlimit="10" stroke-dasharray="" stroke-dashoffset="0" style="mix-blend-mode: normal"><path d="M266.60553,151.86211c10.13167,19.7346 10.91025,39.54966 1.73899,44.25814c-9.17126,4.70849 -24.81939,-7.47256 -34.95106,-27.20715c-10.13168,-19.73459 -10.91024,-39.54962 -1.73899,-44.25812c9.17126,-4.70849 24.81939,7.47256 34.95106,27.20715z" data-paper-data="{&quot;index&quot;:null}" fill="#7f0000" stroke-width="2" stroke-linecap="butt"/><path d="M190.11812,208.41138l50.61237,14.51854l-1.88517,6.57179l-56.11794,-16.09786l0.90812,-3.16572c0,0 -0.15711,-1.65381 4.56422,-1.47976c3.33898,0.1231 1.9184,-0.34699 1.9184,-0.34699z" data-paper-data="{&quot;index&quot;:null}" fill="#4b2800" stroke-width="2" stroke-linecap="round"/><path d="M240.5122,222.80361l-50.31989,-14.43284l6.24122,-16.38322c0,0 -5.55692,-4.97421 -6.98496,-7.18001c-1.2205,-1.88524 -1.05884,-5.24475 -1.05884,-5.24475h70.60387z" data-paper-data="{&quot;index&quot;:null}" fill="#00267d" stroke-width="2" stroke-linecap="round"/><path d="M196.05131,227.68589c0,0 0.1773,-1.63732 -0.21946,-3.7049c-0.18332,-2.90014 7.45585,-0.49625 10.14334,-4.09687c2.44138,-3.27089 2.74984,-12.84201 1.44887,-16.37267c-2.33798,-6.34496 -19.76639,-16.46399 -19.76639,-22.2793c0,-18.90816 14.98931,-57.15077 14.98931,-57.15077h52c0,0 11,7.43612 11,25.75c0,11.31622 -6.78064,28.00458 -9.75872,46.72305c-2.47514,15.55729 -1.24128,31.13145 -1.24128,31.13145z" data-paper-data="{&quot;index&quot;:null}" fill="#004bff" stroke-width="2" stroke-linecap="butt"/><path d="M201.39698,107.08144c0,-4.80142 1.17547,-9.3232 3.2493,-13.2831c4.66834,-8.91401 13.88892,-0.2308 24.5007,-0.2308c10.94512,0 20.41027,6.45391 24.92705,15.82914c1.80784,3.75243 2.82295,-6.77715 2.82295,-2.31525c0,15.60971 -12.4241,28.26389 -27.75,28.26389c-15.3259,0 -27.75,-12.65418 -27.75,-28.26389z" data-paper-data="{&quot;index&quot;:null}" fill="#f8ff8c" stroke-width="2" stroke-linecap="butt"/><path d="M210.02198,96.87309c2.83046,0 5.125,3.86155 5.125,8.625c0,4.76345 -2.29454,8.625 -5.125,8.625c-2.83046,0 -5.125,-3.86155 -5.125,-8.625c0,-4.76345 2.29454,-8.625 5.125,-8.625z" data-paper-data="{&quot;index&quot;:null}" fill="#000000" stroke-width="1" stroke-linecap="butt"/><path d="M236.21535,85.31209c24.21663,8.02782 42.13943,18.4392 40.03171,23.25445c-2.10774,4.81525 -23.44785,2.21094 -47.66448,-5.81689c-24.21663,-8.02782 -42.13943,-18.4392 -40.03171,-23.25445c2.10774,-4.81525 23.44785,-2.21094 47.66448,5.81689z" data-paper-data="{&quot;index&quot;:null}" fill="#ffca8c" stroke-width="2" stroke-linecap="butt"/><path d="M201.73031,220.78655h52.65359v6.83683h-58.3812v-3.29339c0,0 -0.60703,-1.54637 3.97926,-2.68092c3.24348,-0.80236 1.74835,-0.86252 1.74835,-0.86252z" data-paper-data="{&quot;index&quot;:null}" fill="#a25700" stroke-width="2" stroke-linecap="round"/><path d="M234.10613,95.52354c-22.08809,-8.34737 -13.26463,-14.71148 -9.27961,-24.90196c3.98502,-10.19048 14.60064,-15.56352 23.71064,-12.00103c9.11001,3.5625 13.26463,14.71148 9.27961,24.90196c-3.98502,10.19048 -1.90011,20.24351 -23.71064,12.00103z" data-paper-data="{&quot;index&quot;:null}" fill="#ffdbb1" stroke-width="2" stroke-linecap="butt"/><path d="M247.68522,121.35994l-3.625,-5.625l-2.875,4.375l-6.5,-14.625l21.625,5.25c0,0 -1.68748,4.68567 -3.08511,6.40738c-1.47337,1.81502 -5.53989,4.21762 -5.53989,4.21762z" data-paper-data="{&quot;index&quot;:null}" fill="#a25700" stroke-width="2" stroke-linecap="round"/><path d="M203.72331,117.49877c0,0 13.50429,-1.04194 14.40909,0.8c0.97243,1.97961 1.44097,6.14413 1,7.2c-0.37644,0.90136 -4.63509,0.89844 -5,0.2c-0.28217,-0.54008 -0.27461,-2.88562 -1.2,-3.2c-0.56046,-0.1904 -6.06364,0.6 -6.06364,0.6z" data-paper-data="{&quot;index&quot;:null}" fill="#a25700" stroke-width="1" stroke-linecap="round"/><path d="M258.9936,179.56279h-70.60387z" data-paper-data="{&quot;index&quot;:null}" fill="none" stroke-width="2" stroke-linecap="round"/><path d="M193.06827,138.93063c19.65411,-10.28691 39.46241,-11.22163 44.24304,-2.08777c4.78062,9.13385 -7.2767,24.8775 -26.93083,35.1644c-19.65411,10.28691 -39.46241,11.22163 -44.24304,2.08777c-4.78065,-9.13385 7.27672,-24.87751 26.93084,-35.16442z" data-paper-data="{&quot;index&quot;:null}" fill="#ff0000" stroke-width="2" stroke-linecap="butt"/></g></g></svg>