<svg version="1.1" xmlns="http://www.w3.org/2000/svg" xmlns:xlink="http://www.w3.org/1999/xlink" width="150.84471" height="163.16667" viewBox="0,0,150.84471,163.16667"><g transform="translate(-164.6553,-64.16669)"><g data-paper-data="{&quot;isPaintingLayer&quot;:true}" fill-rule="nonzero" stroke-linejoin="miter" stroke-miterlimit="10" stroke-dasharray="" stroke-dashoffset="0" style="mix-blend-mode: normal"><path d="M219.5,85.6667c0,-11.32184 9.17816,-20.5 20.5,-20.5c11.32184,0 20.5,9.17816 20.5,20.5c0,11.32184 -9.17816,20.5 -20.5,20.5c-11.32184,0 -20.5,-9.17816 -20.5,-20.5z" fill="#ffdbb1" stroke="#000000" stroke-width="2" stroke-linecap="butt"/><path d="M297,108.6667c0,13.99121 -25.51977,25.33333 -57,25.33333c-31.48023,0 -57,-11.34212 -57,-25.33333c0,-13.99121 25.51977,-25.33333 57,-25.33333c31.48023,0 57,11.34212 57,25.33333z" fill="#ffca8c" stroke="#000000" stroke-width="2" stroke-linecap="butt"/><path d="M199.66667,226.33337c0,0 -23.74485,-65.38953 0,-92.66667c23.74486,-27.27715 58.67209,-25.2665 80.66667,0c21.99458,25.2665 0,92.66667 0,92.66667z" fill="#004bff" stroke="#000000" stroke-width="2" stroke-linecap="butt"/><path d="M240.20834,224.54169c9.57885,-9.33762 16.80425,-11.89419 23.03777,-10.69661c5.81552,1.11728 10.76773,5.50212 15.96222,10.69661" data-paper-data="{&quot;index&quot;:null}" fill="none" stroke="#000000" stroke-width="2" stroke-linecap="round"/><path d="M279.41667,225.87503h-79.04167c10.76235,-10.76234 20.48462,-18.71576 39,-0.66666c0.04962,0.04837 0,-46.33334 0,-46.33334h-49.16666h98.16666" fill="none" stroke="#000000" stroke-width="2" stroke-linecap="round"/><path d="M169.92006,159.7124c7.17511,-20.99101 20.89981,-35.30445 30.65497,-31.96996c9.75515,3.33449 11.8467,23.0542 4.67159,44.04522c-7.17511,20.99101 -20.89981,35.30445 -30.65497,31.96996c-9.75516,-3.33449 -11.8467,-23.05421 -4.67159,-44.04523z" fill="#ff0000" stroke="#000000" stroke-width="2" stroke-linecap="butt"/><path d="M310.23524,159.7124c7.17511,20.99102 5.08357,40.71074 -4.67159,44.04523c-9.75516,3.33449 -23.47986,-10.97895 -30.65497,-31.96996c-7.17511,-20.99102 -5.08357,-40.71073 4.67159,-44.04522c9.75516,-3.33449 23.47985,10.97895 30.65497,31.96996z" data-paper-data="{&quot;index&quot;:null}" fill="#ff0000" stroke="#000000" stroke-width="2" stroke-linecap="butt"/><path d="M219.25001,216.56253c7.26687,0 16.16666,7.16666 16.16666,7.16666h-30c0,0 6.56646,-7.16666 13.83334,-7.16666z" fill="#a25700" stroke="#a25700" stroke-width="2" stroke-linecap="round"/><path d="M262.75,135c0,12.56448 -10.18552,22.75 -22.75,22.75c-12.56448,0 -22.75,-10.18552 -22.75,-22.75c0,-12.56448 10.18552,-22.75 22.75,-22.75c12.56448,0 22.75,10.18552 22.75,22.75z" fill="#ff0000" stroke="#000000" stroke-width="2" stroke-linecap="butt"/><path d="M267.75,118.00003c0,15.60971 -12.4241,28.26389 -27.75,28.26389c-15.3259,0 -27.75,-12.65418 -27.75,-28.26389c0,-4.4619 1.01511,-8.68232 2.82295,-12.43475c4.51678,-9.37523 13.98193,-15.82914 24.92705,-15.82914c10.61178,0 19.83236,6.06679 24.5007,14.9808c2.07383,3.9599 3.2493,8.48168 3.2493,13.2831z" fill="#f8ff8c" stroke="#000000" stroke-width="2" stroke-linecap="butt"/><path d="M218.78875,138.25135c0,0 -4.85634,-11.53181 0,-13c4.85634,-1.46819 35.10993,-2.95247 43,0c3.55697,1.33102 0,13 0,13c0,0 -12.774,1.57376 -12.6875,0c0.4529,-8.23993 -18.63226,-8.24147 -18.25,0c0.04407,0.95029 -12.0625,0 -12.0625,0z" fill="#a25700" stroke="#000000" stroke-width="1" stroke-linecap="butt"/><g fill="#000000" stroke="#000000" stroke-width="1" stroke-linecap="butt"><path d="M234.5,110.75003c0,4.76345 -2.29454,8.625 -5.125,8.625c-2.83046,0 -5.125,-3.86155 -5.125,-8.625c0,-4.76345 2.29454,-8.625 5.125,-8.625c2.83046,0 5.125,3.86155 5.125,8.625z"/><path d="M255.75,110.75003c0,4.76345 -2.29454,8.625 -5.125,8.625c-2.83046,0 -5.125,-3.86155 -5.125,-8.625c0,-4.76345 2.29454,-8.625 5.125,-8.625c2.83046,0 5.125,3.86155 5.125,8.625z"/></g><path d="M240.9375,90.00003c20.719,0.52058 25.5,20.5 25.5,20.5h-6.75v-4.25l-7,-9.5l-8.25,3.25l-3.75,-5.25l-6.5,5.25l-6.25,-3l-9.5,16.5l-0.25,-7l-4.25,2.5c0,0 6.281,-19.52058 27,-19z" fill="#a25700" stroke="#000000" stroke-width="2" stroke-linecap="round"/><path d="M260.01851,215.22919c7.6706,0 15.73148,8.5 15.73148,8.5c0,0 -7.48042,0 -11.96296,0c-5.7528,0 -19.70371,0 -19.70371,0c0,0 8.26459,-8.5 15.93519,-8.5z" fill="#a25700" stroke="#a25700" stroke-width="2" stroke-linecap="round"/><path d="M166.56463,188.58181l19.33333,11.66667c0,0 -8.24539,5.17739 -12.33333,2.66667c-6.76742,-4.15641 -7,-14.33333 -7,-14.33333z" fill="#f8ff8c" stroke="#000000" stroke-width="2" stroke-linecap="round"/><path d="M306.56463,202.58181c-4.08794,2.51073 -12.33333,-2.66666 -12.33333,-2.66666l19.33333,-11.66667c0,0 -0.23258,10.17693 -7,14.33334z" data-paper-data="{&quot;index&quot;:null}" fill="#f8ff8c" stroke="#000000" stroke-width="2" stroke-linecap="round"/></g></g></svg>