<svg version="1.1" xmlns="http://www.w3.org/2000/svg" xmlns:xlink="http://www.w3.org/1999/xlink" width="103.65903" height="174.21847" viewBox="0,0,103.65903,174.21847"><g transform="translate(-187.40094,-57.27765)"><g data-paper-data="{&quot;isPaintingLayer&quot;:true}" fill-rule="nonzero" stroke="#000000" stroke-linejoin="miter" stroke-miterlimit="10" stroke-dasharray="" stroke-dashoffset="0" style="mix-blend-mode: normal"><path d="M269.56717,139.56696c16.75787,14.53544 24.86677,32.63208 18.11171,40.41995c-6.75505,7.78788 -25.81605,2.31792 -42.57391,-12.21751c-16.75788,-14.53543 -24.86674,-32.63205 -18.1117,-40.41993c6.75505,-7.78788 25.81605,-2.31792 42.57391,12.21751z" data-paper-data="{&quot;index&quot;:null}" fill="#7f0000" stroke-width="2" stroke-linecap="butt"/><path d="M210.16942,228.44332c0,0 1.23386,-15.57416 -1.24128,-31.13145c-2.97808,-18.71847 -9.75872,-35.40683 -9.75872,-46.72305c0,-18.31388 11,-25.75 11,-25.75h52c0,0 14.98931,38.24261 14.98931,57.15077c0,5.81531 -17.42841,15.93434 -19.76639,22.2793c-1.30097,3.53066 -0.99251,13.10178 1.44887,16.37267c2.68749,3.60062 10.32666,1.19673 10.14334,4.09687c-0.39676,2.06758 -0.21946,3.7049 -0.21946,3.7049z" fill="#004bff" stroke-width="2" stroke-linecap="butt"/><path d="M263.41942,107.83887c0,15.60971 -12.4241,28.26389 -27.75,28.26389c-15.3259,0 -27.75,-12.65418 -27.75,-28.26389c0,-4.4619 1.01511,6.06768 2.82295,2.31525c4.51678,-9.37523 13.98193,-15.82914 24.92705,-15.82914c10.61178,0 19.83236,-8.68321 24.5007,0.2308c2.07383,3.9599 3.2493,8.48168 3.2493,13.2831z" fill="#f8ff8c" stroke-width="2" stroke-linecap="butt"/><path d="M259.91942,106.25553c0,4.76345 -2.29454,8.625 -5.125,8.625c-2.83046,0 -5.125,-3.86155 -5.125,-8.625c0,-4.76345 2.29454,-8.625 5.125,-8.625c2.83046,0 5.125,3.86155 5.125,8.625z" fill="#000000" stroke-width="1" stroke-linecap="butt"/><path d="M276.26553,80.25264c2.10772,4.81525 -15.81508,15.22663 -40.03171,23.25445c-24.21663,8.02783 -45.55674,10.63214 -47.66448,5.81689c-2.10772,-4.81525 15.81508,-15.22663 40.03171,-23.25445c24.21663,-8.02783 45.55674,-10.63214 47.66448,-5.81689z" fill="#ffca8c" stroke-width="2" stroke-linecap="butt"/><path d="M264.83444,222.40651c4.58629,1.13455 3.97926,2.68092 3.97926,2.68092v3.29339h-58.3812v-6.83683h52.65359c0,0 -1.49513,0.06016 1.74835,0.86252z" fill="#4b2800" stroke-width="2" stroke-linecap="round"/><path d="M206.99963,84.27995c-3.98502,-10.19048 0.1696,-21.33946 9.27961,-24.90196c9.11,-3.56249 19.72562,1.81055 23.71064,12.00103c3.98502,10.19048 12.80848,16.55459 -9.27961,24.90196c-21.81053,8.24248 -19.72562,-1.81055 -23.71064,-12.00103z" fill="#ffdbb1" stroke-width="2" stroke-linecap="butt"/><path d="M211.59129,117.89976c-1.39763,-1.72171 -3.08511,-6.40738 -3.08511,-6.40738l21.625,-5.25l-6.5,14.625l-2.875,-4.375l-3.625,5.625c0,0 -4.06652,-2.4026 -5.53989,-4.21762z" fill="#a25700" stroke-width="2" stroke-linecap="round"/><path d="M210.00798,183.14455l15.09814,39.00353h-14.73866c0,0 0.15265,-14.71306 -0.49968,-21.17701c-0.6655,-6.59452 -3.81407,-18.90496 -3.81407,-18.90496z" fill="#00267d" stroke-width="2" stroke-linecap="round"/><path d="M257.94764,123.85621c0,0 -5.50318,-0.7904 -6.06364,-0.6c-0.92539,0.31438 -0.91783,2.65992 -1.2,3.2c-0.36491,0.69844 -4.62356,0.70136 -5,-0.2c-0.44097,-1.05587 0.02757,-5.22039 1,-7.2c0.9048,-1.84194 14.40909,-0.8 14.40909,-0.8z" fill="#a25700" stroke-width="1" stroke-linecap="round"/><path d="M276.61668,209.51581c4.72133,-0.17405 4.56422,1.47976 4.56422,1.47976l0.90812,3.16572l-56.11794,16.09786l-1.88517,-6.57179l50.61237,-14.51854c0,0 -1.42058,0.47009 1.9184,0.34699z" fill="#a25700" stroke-width="2" stroke-linecap="round"/><path d="M205.8228,180.32023h70.60387c0,0 0.16166,3.35951 -1.05884,5.24475c-1.42804,2.2058 -6.98496,7.18001 -6.98496,7.18001l6.24122,16.38322l-50.31989,14.43284z" fill="#004bff" stroke-width="2" stroke-linecap="round"/><path d="M202.45366,159.54678c11.01987,-19.25272 27.2065,-30.70852 36.15381,-25.58725c8.94731,5.12127 7.26718,24.88029 -3.7527,44.133c-11.01987,19.25272 -27.2065,30.70852 -36.15381,25.58725c-8.94732,-5.12126 -7.26717,-24.8803 3.75271,-44.13303z" fill="#ff0000" stroke-width="2" stroke-linecap="butt"/></g></g></svg>