<svg version="1.1" xmlns="http://www.w3.org/2000/svg" xmlns:xlink="http://www.w3.org/1999/xlink" width="90.75778" height="172.16568" viewBox="0,0,90.75778,172.16568"><g transform="translate(-187.23155,-57.27614)"><g data-paper-data="{&quot;isPaintingLayer&quot;:true}" fill-rule="nonzero" stroke="#000000" stroke-linejoin="miter" stroke-miterlimit="10" stroke-dasharray="" stroke-dashoffset="0" style="mix-blend-mode: normal"><path d="M210.00001,228.44181c0,0 1.23386,-15.57416 -1.24128,-31.13145c-2.97808,-18.71847 -9.75872,-35.40683 -9.75872,-46.72305c0,-18.31388 11,-25.75 11,-25.75h52c0,0 14.98931,38.24261 14.98931,57.15077c0,5.81531 -17.42841,15.93434 -19.76639,22.2793c-1.30097,3.53066 -0.99251,13.10178 1.44887,16.37267c2.68749,3.60062 10.32666,1.19673 10.14334,4.09687c-0.39676,2.06758 -0.21946,3.7049 -0.21946,3.7049z" fill="#004bff" stroke-width="2" stroke-linecap="butt"/><path d="M263.25001,107.83736c0,15.60971 -12.4241,28.26389 -27.75,28.26389c-15.3259,0 -27.75,-12.65418 -27.75,-28.26389c0,-4.4619 1.01511,6.06768 2.82295,2.31525c4.51678,-9.37523 13.98193,-15.82914 24.92705,-15.82914c10.61178,0 19.83236,-8.68321 24.5007,0.2308c2.07383,3.9599 3.2493,8.48168 3.2493,13.2831z" fill="#f8ff8c" stroke-width="2" stroke-linecap="butt"/><path d="M276.25726,180.31873h-70.60387" fill="none" stroke-width="2" stroke-linecap="round"/><path d="M259.75001,106.25402c0,4.76345 -2.29454,8.625 -5.125,8.625c-2.83046,0 -5.125,-3.86155 -5.125,-8.625c0,-4.76345 2.29454,-8.625 5.125,-8.625c2.83046,0 5.125,3.86155 5.125,8.625z" fill="#000000" stroke-width="1" stroke-linecap="butt"/><path d="M211.85605,167.91687c1.09385,-22.15645 10.32779,-39.70571 20.62456,-39.19736c10.29676,0.50835 17.75721,18.88179 16.66335,41.03825c-1.09385,22.15645 -10.32779,39.7057 -20.62456,39.19736c-10.29677,-0.50834 -17.75721,-18.8818 -16.66336,-41.03826z" fill="#ff0000" stroke-width="2" stroke-linecap="butt"/><path d="M276.09613,80.25113c2.10772,4.81525 -15.81508,15.22663 -40.03171,23.25445c-24.21663,8.02783 -45.55674,10.63214 -47.66448,5.81689c-2.10772,-4.81525 15.81508,-15.22663 40.03171,-23.25445c24.21663,-8.02783 45.55674,-10.63214 47.66448,-5.81689z" fill="#ffca8c" stroke-width="2" stroke-linecap="butt"/><path d="M264.66503,222.405c4.58629,1.13455 3.97926,2.68092 3.97926,2.68092v3.29339h-58.3812v-6.83683h52.65359c0,0 -1.49513,0.06016 1.74835,0.86252z" fill="#a25700" stroke-width="2" stroke-linecap="round"/><path d="M206.83022,84.27844c-3.98502,-10.19048 0.1696,-21.33946 9.27961,-24.90196c9.11,-3.56249 19.72562,1.81055 23.71064,12.00103c3.98502,10.19048 12.80848,16.55459 -9.27961,24.90196c-21.81053,8.24248 -19.72562,-1.81055 -23.71064,-12.00103z" fill="#ffdbb1" stroke-width="2" stroke-linecap="butt"/><path d="M211.42188,117.89825c-1.39763,-1.72171 -3.08511,-6.40738 -3.08511,-6.40738l21.625,-5.25l-6.5,14.625l-2.875,-4.375l-3.625,5.625c0,0 -4.06652,-2.4026 -5.53989,-4.21762z" fill="#a25700" stroke-width="2" stroke-linecap="round"/><path d="M257.77823,123.8547c0,0 -5.50318,-0.7904 -6.06364,-0.6c-0.92539,0.31438 -0.91783,2.65992 -1.2,3.2c-0.36491,0.69844 -4.62356,0.70136 -5,-0.2c-0.44097,-1.05587 0.02757,-5.22039 1,-7.2c0.9048,-1.84194 14.40909,-0.8 14.40909,-0.8z" fill="#a25700" stroke-width="1" stroke-linecap="round"/></g></g></svg>