<svg version="1.1" xmlns="http://www.w3.org/2000/svg" xmlns:xlink="http://www.w3.org/1999/xlink" width="150.84471" height="150.3566" viewBox="0,0,150.84471,150.3566"><g transform="translate(-164.65531,-76.99698)"><g data-paper-data="{&quot;isPaintingLayer&quot;:true}" fill-rule="nonzero" stroke="#000000" stroke-width="2" stroke-linejoin="miter" stroke-miterlimit="10" stroke-dasharray="" stroke-dashoffset="0" style="mix-blend-mode: normal"><path d="M169.92007,159.71239c7.17511,-20.99101 20.89981,-35.30445 30.65497,-31.96996c9.75515,3.33449 11.8467,23.0542 4.67159,44.04522c-7.17511,20.99101 -20.89981,35.30445 -30.65497,31.96996c-9.75516,-3.33449 -11.8467,-23.05421 -4.67159,-44.04523z" fill="#ff0000" stroke-linecap="butt"/><path d="M310.23525,159.71238c7.17511,20.99102 5.08357,40.71074 -4.67159,44.04523c-9.75516,3.33449 -23.47986,-10.97895 -30.65497,-31.96996c-7.17511,-20.99102 -5.08357,-40.71073 4.67159,-44.04522c9.75516,-3.33449 23.47985,10.97895 30.65497,31.96996z" data-paper-data="{&quot;index&quot;:null}" fill="#ff0000" stroke-linecap="butt"/><path d="M240.04514,225.20455l-0.38765,-6.20452h-40.76871c0,0 -21.99458,-60.06684 0,-85.33334c21.99458,-25.2665 56.92181,-27.27715 80.66667,0c23.74485,27.27714 0,92.66667 0,92.66667z" data-paper-data="{&quot;index&quot;:null}" fill="#004bff" stroke-linecap="butt"/><path d="M239.01378,224.54169" data-paper-data="{&quot;index&quot;:null}" fill="none" stroke-linecap="round"/><path d="M190.84712,178.87502h98.16666h-49.16666c0,0 -0.04962,46.38171 0,46.33334" data-paper-data="{&quot;index&quot;:null}" fill="none" stroke-linecap="round"/><path d="M262.75001,135c0,12.56448 -10.18552,22.75 -22.75,22.75c-12.56448,0 -22.75,-10.18552 -22.75,-22.75c0,-12.56448 10.18552,-22.75 22.75,-22.75c12.56448,0 22.75,10.18552 22.75,22.75z" fill="#ff0000" stroke-linecap="butt"/><path d="M267.75001,118.00002c0,15.60971 -12.4241,28.26389 -27.75,28.26389c-15.3259,0 -27.75,-12.65418 -27.75,-28.26389c0,-4.4619 1.01511,-8.68232 2.82295,-12.43475c4.51678,-9.37523 13.98193,-15.82914 24.92705,-15.82914c10.61178,0 19.83236,6.06679 24.5007,14.9808c2.07383,3.9599 3.2493,8.48168 3.2493,13.2831z" fill="#f8ff8c" stroke-linecap="butt"/><path d="M240.93751,110.33335c20.719,0.52058 25.5,20.5 25.5,20.5l-5.41667,-2.33333l-1.66667,7.08333l-8.33333,-3.16667l-5.58333,5.25l-6.75,-5.58333l-7.83333,6.25l-7.58333,-8.33333l-4.83333,3.83333l-0.25,-7l-4.25,2.5c0,0 6.281,-19.52058 27,-19z" fill="#a25700" stroke-linecap="round"/><path d="M297.00001,108.66669c0,13.99121 -25.51977,25.33333 -57,25.33333c-31.48023,0 -57,-11.34212 -57,-25.33333c0,-13.99121 25.51977,-25.33333 57,-25.33333c31.48023,0 57,11.34212 57,25.33333z" fill="#ffca8c" stroke-linecap="butt"/><path d="M219.46261,98.49698c0,-11.32184 9.17816,-20.5 20.5,-20.5c11.32184,0 20.5,9.17816 20.5,20.5c0,11.32184 6.82854,20.77969 -20.5,20.5c-26.98514,-0.27618 -20.5,-9.17816 -20.5,-20.5z" fill="#ffdbb1" stroke-linecap="butt"/><path d="M239.85749,226.24848v-5.66667h41.33334l-1.66667,5.66667z" data-paper-data="{&quot;index&quot;:null}" fill="#a25700" stroke-linecap="butt"/><path d="M199.03923,220.04848l-1.71506,-5.66667h42.53333v5.66667z" data-paper-data="{&quot;index&quot;:null}" fill="#a25700" stroke-linecap="butt"/></g></g></svg>