<svg version="1.1" xmlns="http://www.w3.org/2000/svg" xmlns:xlink="http://www.w3.org/1999/xlink" width="113.32412" height="174.21847" viewBox="0,0,113.32412,174.21847"><g transform="translate(-187.23305,-57.10976)"><g data-paper-data="{&quot;isPaintingLayer&quot;:true}" fill-rule="nonzero" stroke="#000000" stroke-linejoin="miter" stroke-miterlimit="10" stroke-dasharray="" stroke-dashoffset="0" style="mix-blend-mode: normal"><path d="M198.04298,152.45168c10.13167,-19.73459 25.7798,-31.91564 34.95106,-27.20715c9.17125,4.7085 8.39269,24.52353 -1.73899,44.25812c-10.13167,19.73459 -25.7798,31.91564 -34.95106,27.20715c-9.17126,-4.70848 -8.39268,-24.52354 1.73899,-44.25814z" fill="#7f0000" stroke-width="2" stroke-linecap="butt"/><path d="M276.44879,209.34792c4.72133,-0.17405 4.56422,1.47976 4.56422,1.47976l0.90812,3.16572l-56.11794,16.09786l-1.88517,-6.57179l50.61237,-14.51854c0,0 -1.42058,0.47009 1.9184,0.34699z" fill="#4b2800" stroke-width="2" stroke-linecap="round"/><path d="M205.65491,180.15234h70.60387c0,0 0.16166,3.35951 -1.05884,5.24475c-1.42804,2.2058 -6.98496,7.18001 -6.98496,7.18001l6.24122,16.38322l-50.31989,14.43284z" fill="#00267d" stroke-width="2" stroke-linecap="round"/><path d="M210.00153,228.27543c0,0 1.23386,-15.57416 -1.24128,-31.13145c-2.97808,-18.71847 -9.75872,-35.40683 -9.75872,-46.72305c0,-18.31388 11,-25.75 11,-25.75h52c0,0 14.98931,38.24261 14.98931,57.15077c0,5.81531 -17.42841,15.93434 -19.76639,22.2793c-1.30097,3.53066 -0.99251,13.10178 1.44887,16.37267c2.68749,3.60062 10.32666,1.19673 10.14334,4.09687c-0.39676,2.06758 -0.21946,3.7049 -0.21946,3.7049z" fill="#004bff" stroke-width="2" stroke-linecap="butt"/><path d="M263.25153,107.67098c0,15.60971 -12.4241,28.26389 -27.75,28.26389c-15.3259,0 -27.75,-12.65418 -27.75,-28.26389c0,-4.4619 1.01511,6.06768 2.82295,2.31525c4.51678,-9.37523 13.98193,-15.82914 24.92705,-15.82914c10.61178,0 19.83236,-8.68321 24.5007,0.2308c2.07383,3.9599 3.2493,8.48168 3.2493,13.2831z" fill="#f8ff8c" stroke-width="2" stroke-linecap="butt"/><path d="M259.75153,106.08764c0,4.76345 -2.29454,8.625 -5.125,8.625c-2.83046,0 -5.125,-3.86155 -5.125,-8.625c0,-4.76345 2.29454,-8.625 5.125,-8.625c2.83046,0 5.125,3.86155 5.125,8.625z" fill="#000000" stroke-width="1" stroke-linecap="butt"/><path d="M276.09764,80.08475c2.10772,4.81525 -15.81508,15.22663 -40.03171,23.25445c-24.21663,8.02783 -45.55674,10.63214 -47.66448,5.81689c-2.10772,-4.81525 15.81508,-15.22663 40.03171,-23.25445c24.21663,-8.02783 45.55674,-10.63214 47.66448,-5.81689z" fill="#ffca8c" stroke-width="2" stroke-linecap="butt"/><path d="M264.66655,222.23862c4.58629,1.13455 3.97926,2.68092 3.97926,2.68092v3.29339h-58.3812v-6.83683h52.65359c0,0 -1.49513,0.06016 1.74835,0.86252z" fill="#a25700" stroke-width="2" stroke-linecap="round"/><path d="M206.83174,84.11206c-3.98502,-10.19048 0.1696,-21.33946 9.27961,-24.90196c9.11,-3.56249 19.72562,1.81055 23.71064,12.00103c3.98502,10.19048 12.80848,16.55459 -9.27961,24.90196c-21.81053,8.24248 -19.72562,-1.81055 -23.71064,-12.00103z" fill="#ffdbb1" stroke-width="2" stroke-linecap="butt"/><path d="M211.4234,117.73187c-1.39763,-1.72171 -3.08511,-6.40738 -3.08511,-6.40738l21.625,-5.25l-6.5,14.625l-2.875,-4.375l-3.625,5.625c0,0 -4.06652,-2.4026 -5.53989,-4.21762z" fill="#a25700" stroke-width="2" stroke-linecap="round"/><path d="M257.77975,123.68832c0,0 -5.50318,-0.7904 -6.06364,-0.6c-0.92539,0.31438 -0.91783,2.65992 -1.2,3.2c-0.36491,0.69844 -4.62356,0.70136 -5,-0.2c-0.44097,-1.05587 0.02757,-5.22039 1,-7.2c0.9048,-1.84194 14.40909,-0.8 14.40909,-0.8z" fill="#a25700" stroke-width="1" stroke-linecap="round"/><path d="M276.25878,180.15234h-70.60387z" fill="none" stroke-width="2" stroke-linecap="round"/><path d="M271.58023,139.52016c19.65412,10.28691 31.71149,26.03057 26.93084,35.16442c-4.78063,9.13386 -24.58893,8.19914 -44.24304,-2.08777c-19.65413,-10.2869 -31.71145,-26.03055 -26.93083,-35.1644c4.78063,-9.13386 24.58893,-8.19914 44.24304,2.08777z" data-paper-data="{&quot;index&quot;:null}" fill="#ff0000" stroke-width="2" stroke-linecap="butt"/></g></g></svg>